<svg width="44" height="44" viewBox="0 0 44 44" fill="none" xmlns="http://www.w3.org/2000/svg">
<rect width="44" height="44" rx="6" fill="#41658A"/>
<rect x="0.5" y="0.5" width="43" height="43" rx="5.5" stroke="white" stroke-opacity="0.03"/>
<path fill-rule="evenodd" clip-rule="evenodd" d="M10.9683 12.1105C9.95251 12.3985 9.76055 14.2668 10.2771 18.8343C10.6069 21.7513 10.7421 22.2109 11.5513 23.1678C12.3909 24.1606 13.6156 24.6998 15.3054 24.8207L16.7676 24.9255L15.6423 25.3062C13.3668 26.0763 12.2694 27.448 12.689 28.9981C12.9221 29.86 13.7246 30.9722 14.6945 31.778C17.4571 34.0727 19.9557 33.0406 21.4845 28.9728C21.7357 28.3046 21.9676 27.7843 22 27.8165C22.0325 27.849 22.2615 28.3898 22.5092 29.0185C24.3488 33.6899 27.2301 34.2804 30.3854 30.6328C32.2199 28.5122 31.3633 26.2636 28.3632 25.3243L27.2173 24.9656L28.6882 24.8345C31.2691 24.6044 32.946 23.3139 33.3621 21.2369C33.6547 19.7769 34 16.1492 34 14.5355C34 13.3261 33.9384 13.1295 33.3895 12.5831C32.6128 11.8103 31.9572 11.8066 30.3446 12.5663C28.1717 13.5901 25.3387 16.5418 23.0546 20.1616L21.9596 21.897L21.3725 20.8576C20.3968 19.1305 17.8232 15.872 16.3563 14.5067C14.3799 12.6671 12.2876 11.7364 10.9683 12.1105Z" fill="white"/>
</svg>
