<svg width="44" height="44" viewBox="0 0 44 44" fill="none" xmlns="http://www.w3.org/2000/svg">
<rect width="44" height="44" rx="6" fill="#41658A"/>
<rect x="0.5" y="0.5" width="43" height="43" rx="5.5" stroke="white" stroke-opacity="0.03"/>
<path fill-rule="evenodd" clip-rule="evenodd" d="M10.9683 12.6105C9.95251 12.8985 9.76055 14.7668 10.2771 19.3343C10.6069 22.2513 10.7421 22.7109 11.5513 23.6678C12.3909 24.6606 13.6156 25.1998 15.3054 25.3207L16.7676 25.4255L15.6423 25.8062C13.3668 26.5763 12.2694 27.948 12.689 29.4981C12.9221 30.36 13.7246 31.4722 14.6945 32.278C17.4571 34.5727 19.9557 33.5406 21.4845 29.4728C21.7357 28.8046 21.9676 28.2843 22 28.3165C22.0325 28.349 22.2615 28.8898 22.5092 29.5185C24.3488 34.1899 27.2301 34.7804 30.3854 31.1328C32.2199 29.0122 31.3633 26.7636 28.3632 25.8243L27.2173 25.4656L28.6882 25.3345C31.2691 25.1044 32.946 23.8139 33.3621 21.7369C33.6547 20.2769 34 16.6492 34 15.0355C34 13.8261 33.9384 13.6295 33.3895 13.0831C32.6128 12.3103 31.9572 12.3066 30.3446 13.0663C28.1717 14.0901 25.3387 17.0418 23.0546 20.6616L21.9596 22.397L21.3725 21.3576C20.3968 19.6305 17.8232 16.372 16.3563 15.0067C14.3799 13.1671 12.2876 12.2364 10.9683 12.6105Z" fill="white"/>
</svg>
