<svg width="44" height="44" viewBox="0 0 44 44" fill="none" xmlns="http://www.w3.org/2000/svg">
<path fill-rule="evenodd" clip-rule="evenodd" d="M17.2985 -2.33432e-06L38 -5.24537e-07C41.3137 -2.34843e-07 44 2.68629 44 6L44 38C44 41.3137 41.3137 44 38 44L6 44C2.68629 44 2.02938e-07 41.3137 4.92631e-07 38L2.35456e-06 16.702L17.2985 -2.33432e-06Z" fill="white"/>
<path fill-rule="evenodd" clip-rule="evenodd" d="M17.2852 0.0105133L17.2852 10.6892C17.2852 14.0029 14.5989 16.6892 11.2852 16.6892L0.0108323 16.6892L17.2852 0.0105133Z" fill="#BCC3C9"/>
<rect width="24" height="2.25" rx="1.125" transform="matrix(-1 -8.74228e-08 -8.74228e-08 1 34 35)" fill="#A3A9AF"/>
<rect width="24" height="2.25" rx="1.125" transform="matrix(-1 -8.74228e-08 -8.74228e-08 1 34 29.5)" fill="#A3A9AF"/>
<rect width="24" height="2.25" rx="1.125" transform="matrix(-1 -8.74228e-08 -8.74228e-08 1 34 24)" fill="#A3A9AF"/>
</svg>
