<svg width="44" height="44" viewBox="0 0 44 44" fill="none" xmlns="http://www.w3.org/2000/svg">
<path fill-rule="evenodd" clip-rule="evenodd" d="M17.2985 44L38 44C41.3137 44 44 41.3137 44 38L44 6C44 2.6863 41.3137 3.57985e-06 38 3.29016e-06L6.00001 4.92632e-07C2.6863 2.02939e-07 5.7061e-06 2.68629 5.41641e-06 6L3.55448e-06 27.298L17.2985 44Z" fill="white"/>
<path fill-rule="evenodd" clip-rule="evenodd" d="M17.2852 43.9891L17.2852 33.3104C17.2852 29.9967 14.5989 27.3104 11.2852 27.3104L0.0108352 27.3104L17.2852 43.9891Z" fill="#BCC3C9"/>
<path fill-rule="evenodd" clip-rule="evenodd" d="M29.0171 24.0999L24.0999 29.0171L13.0184 17.9356C11.6605 16.5777 11.6605 14.3762 13.0184 13.0184C14.3762 11.6605 16.5777 11.6605 17.9356 13.0184L29.0171 24.0999ZM29.5718 24.9564L31.2095 31.0685L25.0973 29.4308L29.5718 24.9564Z" fill="#333333"/>
</svg>
