<svg width="44" height="44" viewBox="0 0 44 44" fill="none" xmlns="http://www.w3.org/2000/svg">
<path fill-rule="evenodd" clip-rule="evenodd" d="M26.7015 44L6 44C2.68629 44 -2.34843e-07 41.3137 -5.24537e-07 38L-3.32207e-06 6C-3.61176e-06 2.68629 2.68628 -4.04954e-06 5.99999 -4.33923e-06L38 -7.13676e-06C41.3137 -7.42646e-06 44 2.68628 44 5.99999L44 27.298L26.7015 44Z" fill="white"/>
<path fill-rule="evenodd" clip-rule="evenodd" d="M26.7148 43.9891L26.7148 33.3104C26.7148 29.9967 29.4011 27.3104 32.7148 27.3104L43.9892 27.3104L26.7148 43.9891Z" fill="#BCC3C9"/>
<path fill-rule="evenodd" clip-rule="evenodd" d="M14.9829 24.0999L19.9001 29.0171L30.9816 17.9356C32.3395 16.5777 32.3395 14.3762 30.9816 13.0184C29.6238 11.6605 27.4223 11.6605 26.0644 13.0184L14.9829 24.0999ZM14.4282 24.9564L12.7905 31.0685L18.9027 29.4308L14.4282 24.9564Z" fill="#333333"/>
</svg>
