<svg width="44" height="44" viewBox="0 0 44 44" fill="none" xmlns="http://www.w3.org/2000/svg">
<rect width="44" height="44" rx="6" fill="#bdbdbd"/>
<path d="M30.099 13H14.901C13.8554 13 13 13.855 13 14.9V32L16.7924 28.2H30.099C31.1446 28.2 32 27.345 32 26.3V14.9C32 13.855 31.1446 13 30.099 13ZM23.4457 24.4H21.5448V22.5H23.4457V24.4ZM23.4457 19.65C23.4457 20.1725 23.018 20.6 22.4952 20.6C21.9725 20.6 21.5448 20.1725 21.5448 19.65V17.75C21.5448 17.2275 21.9725 16.8 22.4952 16.8C23.018 16.8 23.4457 17.2275 23.4457 17.75V19.65Z" fill="black"/>
</svg>
