<svg width="44" height="44" viewBox="0 0 44 44" fill="none" xmlns="http://www.w3.org/2000/svg">
<path fill-rule="evenodd" clip-rule="evenodd" d="M20.4581 3.03467C19.4257 1.22216 17.476 0 15.2409 0H8.27539C4.96168 0 2.27539 2.68629 2.27539 6L2.27539 27.3793C2.27539 30.4341 4.55834 32.9557 7.51121 33.3311C7.56126 33.3375 7.6115 33.3432 7.66193 33.3483C7.86415 33.3689 8.06935 33.3795 8.27701 33.3795H35.7253C39.039 33.3795 41.7253 30.6932 41.7253 27.3795V9.03467C41.7253 5.72096 39.039 3.03467 35.7253 3.03467L20.4581 3.03467Z" fill="#DED4CA"/>
<rect x="42.4824" y="5.31055" width="31.1034" height="40.9655" rx="6" transform="rotate(90 42.4824 5.31055)" fill="white"/>
<rect x="44" y="6.82764" width="37.1724" height="44" rx="6" transform="rotate(90 44 6.82764)" fill="#DED4CA"/>
</svg>
