<svg width="44" height="44" viewBox="0 0 44 44" fill="none" xmlns="http://www.w3.org/2000/svg">
<path fill-rule="evenodd" clip-rule="evenodd" d="M20.4585 3.03448C19.4261 1.22208 17.4764 0 15.2414 0H8.27588C4.96217 0 2.27588 2.68629 2.27588 6L2.27588 27.3793C2.27588 27.7935 2.31785 28.1979 2.39778 28.5885C2.95726 31.3226 5.37638 33.3793 8.27588 33.3793H15.2414L35.7242 33.3793C39.0379 33.3793 41.7242 30.693 41.7242 27.3793V9.03448C41.7242 5.72077 39.0379 3.03448 35.7241 3.03448L20.4585 3.03448Z" fill="#DED4CA"/>
<rect x="42.4827" y="5.3103" width="31.1034" height="40.9655" rx="6" transform="rotate(90 42.4827 5.3103)" fill="white"/>
<rect x="44" y="6.82764" width="37.1724" height="44" rx="6" transform="rotate(90 44 6.82764)" fill="#DED4CA"/>
</svg>
