<svg width="44" height="46" viewBox="0 0 44 46" fill="none" xmlns="http://www.w3.org/2000/svg">
<path d="M0 7C0 3.68629 2.68629 1 6 1H37C40.866 1 44 4.13401 44 8V39C44 42.3137 41.3137 45 38 45H6C2.68629 45 0 42.3137 0 39V7Z" fill="#7B9486"/>
<path d="M41 10.5V10H41.5C41.5 5.30558 37.6944 1.5 33 1.5H5C2.51472 1.5 0.5 3.51472 0.5 6C0.5 8.48528 2.51472 10.5 5 10.5H41Z" fill="white" stroke="#7B9486"/>
<path d="M11 5.4L6 3V9H16V3L11 5.4Z" fill="#444444"/>
<path d="M20 6C20 3.79086 21.7909 2 24 2H37C40.3137 2 43 4.68629 43 8V22H24C21.7909 22 20 20.2091 20 18V6Z" fill="white"/>
<path d="M2 11H1V12V39C1 41.7614 3.23858 44 6 44H37C39.7614 44 42 41.7614 42 39V18C42 14.134 38.866 11 35 11H2Z" fill="#7B9486" stroke="#7B9486" stroke-width="2"/>
<path d="M29 10H33V45C33 45.5523 32.5523 46 32 46H30C29.4477 46 29 45.5523 29 45V10Z" fill="#516158"/>
<path d="M29 1C29 0.447716 29.4477 0 30 0H32C32.5523 0 33 0.447715 33 1V10H29V1Z" fill="#7B9486"/>
</svg>
