<svg width="44" height="44" viewBox="0 0 44 44" fill="none" xmlns="http://www.w3.org/2000/svg">
<rect width="44" height="44" rx="6" fill="#598681"/>
<path fill-rule="evenodd" clip-rule="evenodd" d="M21.3827 9.70495C20.4068 10.2755 18.935 12.3689 18.2202 14.2034C17.7628 15.3772 17.6122 16.2641 17.6122 17.7853C17.6122 19.146 17.6594 19.5319 17.9954 20.9145C18.376 22.4811 19.3418 24.8352 20.1483 26.1624C20.5225 26.7782 21.27 27.6243 21.5885 27.7925C21.6985 27.8506 21.9018 27.8982 22.0402 27.8982C23.2673 27.8982 25.4491 23.8057 26.2106 20.0756C26.3773 19.2593 26.4091 18.9092 26.412 17.8608C26.4157 16.5571 26.356 16.0853 26.0447 14.9552C25.6497 13.5215 24.5313 11.5661 23.446 10.4116C22.5607 9.47001 22.0713 9.30239 21.3827 9.70495ZM9.38254 24.4602C9.06718 24.6 8.953 24.9654 9.0172 25.6295C9.16203 27.1272 9.92605 28.6362 11.1559 29.8534C12.2789 30.9649 14.4373 32.0065 16.4066 32.3872C17.835 32.6634 19.752 32.4059 20.0165 31.9022C20.3954 31.1807 19.4356 28.8501 18.2247 27.5507C17.124 26.3697 15.3232 25.457 12.8039 24.8035C11.0779 24.3556 9.88747 24.2363 9.38254 24.4602ZM32.8658 24.4304C30.6975 24.724 27.5849 25.9531 26.3331 27.0101C25.2313 27.9402 24.184 29.7302 23.9381 31.1035C23.8025 31.8613 24.0208 32.1313 24.9529 32.3586C26.8158 32.813 29.6611 32.1149 31.8533 30.6656C32.9262 29.9563 33.827 28.8949 34.4206 27.6405C34.8114 26.8148 34.9792 26.1797 34.9986 25.4534C35.0148 24.8466 34.8889 24.5506 34.5602 24.4232C34.3449 24.3398 33.5088 24.3433 32.8658 24.4304Z" fill="white"/>
</svg>
