<svg width="44" height="44" viewBox="0 0 44 44" fill="none" xmlns="http://www.w3.org/2000/svg">
<rect width="44" height="44" rx="6" fill="#598681"/>
<path fill-rule="evenodd" clip-rule="evenodd" d="M20.9607 10.2139C19.9392 10.8092 18.3988 12.9937 17.6506 14.9079C17.1718 16.1328 17.0143 17.0582 17.0143 18.6455C17.0142 20.0654 17.0636 20.468 17.4153 21.9108C17.8137 23.5455 18.8246 26.0019 19.6687 27.3868C20.0604 28.0294 20.8428 28.9123 21.1761 29.0878C21.2913 29.1485 21.504 29.1981 21.6489 29.1981C22.9334 29.1981 25.217 24.9277 26.014 21.0354C26.1885 20.1836 26.2218 19.8183 26.2248 18.7243C26.2286 17.3639 26.1662 16.8717 25.8403 15.6924C25.4269 14.1964 24.2563 12.1559 23.1204 10.9513C22.1937 9.96871 21.6815 9.7938 20.9607 10.2139ZM8.4004 25.6106C8.07032 25.7565 7.95081 26.1379 8.018 26.8308C8.1696 28.3936 8.96928 29.9682 10.2565 31.2383C11.4319 32.3981 13.6912 33.485 15.7524 33.8823C17.2474 34.1705 19.254 33.9018 19.5307 33.3762C19.9273 32.6234 18.9228 30.1915 17.6553 28.8355C16.5032 27.6032 14.6183 26.6508 11.9815 25.9689C10.1749 25.5015 8.9289 25.377 8.4004 25.6106ZM32.9799 25.5796C30.7104 25.8859 27.4525 27.1685 26.1422 28.2714C24.989 29.242 23.8928 31.1098 23.6355 32.5428C23.4935 33.3335 23.7219 33.6152 24.6976 33.8525C26.6475 34.3266 29.6256 33.5981 31.9201 32.0859C33.0431 31.3457 33.9859 30.2382 34.6073 28.9292C35.0163 28.0676 35.192 27.4049 35.2123 26.647C35.2293 26.0138 35.0974 25.705 34.7534 25.572C34.528 25.485 33.6529 25.4887 32.9799 25.5796Z" fill="white"/>
</svg>
