<svg width="44" height="44" viewBox="0 0 44 44" fill="none" xmlns="http://www.w3.org/2000/svg">
<rect width="44" height="44" rx="6" fill="#BCC3C9"/>
<path fill-rule="evenodd" clip-rule="evenodd" d="M24 7H20V10.166C18.1766 10.4719 16.4928 11.189 15.0469 12.2185L12.8076 9.97925L9.97925 12.8076L12.2185 15.0469C11.1888 16.4927 10.4718 18.1765 10.1659 20H7V24H10.1659C10.4718 25.8235 11.1888 27.5073 12.2185 28.9531L9.97925 31.1924L12.8076 34.0208L15.0469 31.7815C16.4928 32.811 18.1766 33.5281 20 33.834V37H24V33.834C25.8234 33.5281 27.5072 32.811 28.9531 31.7815L31.1925 34.0208L34.0209 31.1924L31.7815 28.9531C32.8112 27.5073 33.5282 25.8232 33.8341 24H37V20H33.8341C33.5282 18.1768 32.8112 16.4927 31.7815 15.0469L34.0209 12.8076L31.1924 9.979L28.953 12.2185C27.5072 11.189 25.8232 10.4719 24 10.166V7ZM22 14C17.5817 14 14 17.5818 14 22C14 26.4182 17.5817 30 22 30C26.4183 30 30 26.4182 30 22C30 17.5818 26.4183 14 22 14Z" fill="#2A3238"/>
</svg>
