<svg width="44" height="44" viewBox="0 0 44 44" fill="none" xmlns="http://www.w3.org/2000/svg">
<rect width="44" height="44" rx="6" fill="#708899"/>
<path d="M14.3973 16.4652H14.3692C14.0626 16.4837 13.7554 16.4388 13.4669 16.3333C13.1785 16.2278 12.9148 16.0639 12.6925 15.8519C12.4702 15.6399 12.294 15.3844 12.1749 15.1012C12.0557 14.8181 11.9963 14.5134 12.0002 14.2063C12.0041 13.8991 12.0713 13.5961 12.1975 13.3161C12.3238 13.036 12.5065 12.785 12.7341 12.5788C12.9617 12.3725 13.2294 12.2154 13.5205 12.1172C13.8115 12.019 14.1197 11.9819 14.4258 12.0082C14.7333 11.9859 15.0422 12.0275 15.3329 12.1304C15.6236 12.2332 15.8899 12.3951 16.115 12.6059C16.3401 12.8166 16.5192 13.0717 16.641 13.355C16.7628 13.6383 16.8246 13.9437 16.8227 14.2521C16.8207 14.5605 16.755 14.8651 16.6296 15.1468C16.5042 15.4285 16.3219 15.6813 16.0941 15.8892C15.8663 16.097 15.598 16.2555 15.306 16.3546C15.014 16.4538 14.7046 16.4914 14.3973 16.4652Z" fill="#2A3238"/>
<path d="M16.4119 19.4653H12.4119V31.4653H16.4119V19.4653Z" fill="#2A3238"/>
<path d="M26.9114 19.4653C26.2373 19.4672 25.5724 19.6213 24.9663 19.9163C24.3603 20.2113 23.8287 20.6394 23.4114 21.1688V19.4653H19.4114V31.4653H23.4114V25.9653C23.4114 25.4349 23.6221 24.9262 23.9972 24.5511C24.3722 24.176 24.8809 23.9653 25.4114 23.9653C25.9418 23.9653 26.4505 24.176 26.8256 24.5511C27.2007 24.9262 27.4114 25.4349 27.4114 25.9653V31.4653H31.4114V23.9653C31.4114 23.3744 31.295 22.7892 31.0688 22.2433C30.8427 21.6973 30.5112 21.2012 30.0934 20.7834C29.6755 20.3655 29.1794 20.034 28.6335 19.8079C28.0875 19.5817 27.5023 19.4653 26.9114 19.4653V19.4653Z" fill="#2A3238"/>
</svg>
