<svg width="45" height="45" viewBox="0 0 45 45" fill="none" xmlns="http://www.w3.org/2000/svg">
<rect width="45" height="45" rx="6" fill="#775262"/>
<rect x="0.5" y="0.5" width="44" height="44" rx="5.5" stroke="white" stroke-opacity="0.03"/>
<path fill-rule="evenodd" clip-rule="evenodd" d="M16.2113 12.0669C14.4964 12.3582 13.0935 13.2277 12.1094 14.6092C11.5816 15.3501 11.2311 16.2143 11.0522 17.2161C10.9826 17.6056 10.9826 28.3926 11.0522 28.7821C11.3621 30.5173 12.2216 31.8987 13.6018 32.8799C14.3915 33.4414 15.2184 33.7685 16.2642 33.9333C16.666 33.9966 16.9614 34 22 34C27.0386 34 27.334 33.9966 27.7358 33.9333C28.785 33.768 29.5966 33.4457 30.4075 32.8725C31.7712 31.9085 32.639 30.5112 32.9478 28.7821C33.0174 28.3926 33.0174 17.6056 32.9478 17.2161C32.6365 15.4734 31.7872 14.1132 30.3831 13.1083C29.6476 12.582 28.691 12.2061 27.6963 12.0525C27.3832 12.0041 26.6755 11.9977 21.9605 12.0006C16.968 12.0036 16.5553 12.0084 16.2113 12.0669ZM28.1133 15.9977C28.4269 16.0928 28.6488 16.2574 28.826 16.5264C29.0013 16.7925 29.0693 17.0337 29.0536 17.3334C29.0285 17.8098 28.7276 18.2603 28.2913 18.4743C28.1101 18.5632 28.0515 18.5737 27.7358 18.5737C27.4204 18.5737 27.3613 18.5632 27.181 18.4747C26.7097 18.2435 26.4139 17.7784 26.4127 17.2665C26.4115 16.7996 26.7046 16.3074 27.1133 16.09C27.3789 15.9488 27.8183 15.9082 28.1133 15.9977ZM22.7425 17.7604C23.949 17.958 24.9261 18.4466 25.7393 19.2592C27.5184 21.0366 27.8074 23.8077 26.4305 25.8887C25.1478 27.8274 22.8276 28.7035 20.5891 28.0945C18.7771 27.6015 17.3337 26.133 16.8631 24.3038C16.6547 23.494 16.6547 22.5042 16.8631 21.6944C17.1577 20.5491 17.8634 19.4921 18.8078 18.7817C19.5406 18.2303 20.2697 17.9295 21.3117 17.7484C21.5924 17.6995 22.4134 17.7065 22.7425 17.7604ZM21.6117 19.5123C21.2819 19.55 20.7825 19.6897 20.4867 19.8272C19.5316 20.2708 18.7847 21.2189 18.5573 22.2762C18.5183 22.4578 18.4967 22.7154 18.4967 22.9991C18.4967 23.6985 18.658 24.2775 19.0087 24.837C19.8529 26.1839 21.3767 26.7813 22.9476 26.3814C24.1569 26.0735 25.169 24.9947 25.4427 23.722C25.5222 23.3521 25.5228 22.6554 25.4438 22.2847C25.1243 20.7847 23.8925 19.6849 22.3353 19.5093C21.9834 19.4696 21.9853 19.4696 21.6117 19.5123Z" fill="white"/>
</svg>
