<svg width="44" height="44" viewBox="0 0 44 44" fill="none" xmlns="http://www.w3.org/2000/svg">
<rect width="44" height="44" rx="6" fill="#7E5063"/>
<rect x="0.5" y="0.5" width="43" height="43" rx="5.5" stroke="white" stroke-opacity="0.03"/>
<path d="M22.8616 10.0308C15.552 9.5147 9.5147 15.552 10.0308 22.8616C10.4629 29.211 16.0081 34 22.3695 34H26.7984C27.4586 34 27.9987 33.4599 27.9987 32.7997C27.9987 32.1396 27.4586 31.5995 26.7984 31.5995H22.3935C17.9165 31.5995 13.8116 28.6949 12.6954 24.3619C10.907 17.4004 17.3884 10.907 24.3499 12.7074C28.6949 13.8116 31.5995 17.9165 31.5995 22.3935V23.7138C31.5995 24.662 30.7473 25.5982 29.7991 25.5982C28.8509 25.5982 27.9987 24.662 27.9987 23.7138V22.2134C27.9987 19.2008 25.8622 16.4882 22.8856 16.0681C18.8047 15.48 15.36 19.0088 16.0921 23.1136C16.5002 25.4061 18.2886 27.3026 20.5571 27.8427C22.7656 28.3588 24.866 27.6506 26.2463 26.2463C27.3146 27.7106 29.451 28.4788 31.4074 27.6986C33.0158 27.0625 34 25.4181 34 23.6898V22.3815C34 16.0081 29.211 10.4629 22.8616 10.0308V10.0308ZM21.9974 25.5982C20.005 25.5982 18.3966 23.9898 18.3966 21.9974C18.3966 20.005 20.005 18.3966 21.9974 18.3966C23.9898 18.3966 25.5982 20.005 25.5982 21.9974C25.5982 23.9898 23.9898 25.5982 21.9974 25.5982Z" fill="#E8E8E8"/>
</svg>
