<svg width="44" height="44" viewBox="0 0 44 44" fill="none" xmlns="http://www.w3.org/2000/svg">
<rect width="44" height="44" rx="6" fill="#444444"/>
<rect x="0.5" y="0.5" width="43" height="43" rx="5.5" stroke="white" stroke-opacity="0.03"/>
<path d="M21.6108 10.0256C15.5728 10.4172 11 15.71 11 21.7607V30.2114C11 32.3083 12.6927 34.001 14.7896 34.001H16.0528C17.4423 34.001 18.5791 32.8641 18.5791 31.4746V26.4218C18.5791 25.0323 17.4423 23.8954 16.0528 23.8954H13.5264V21.7354C13.5264 16.8847 17.2654 12.6657 22.1034 12.5267C27.1183 12.3878 31.2111 16.3921 31.2111 21.3691V23.8954H28.6847C27.2952 23.8954 26.1583 25.0323 26.1583 26.4218V31.4746C26.1583 32.8641 27.2952 34.001 28.6847 34.001H29.9479C32.0448 34.001 33.7374 32.3083 33.7374 30.2114V21.3691C33.7374 14.8384 28.2299 9.59613 21.6108 10.0256V10.0256Z" fill="white"/>
</svg>
