<svg width="44" height="44" viewBox="0 0 44 44" fill="none" xmlns="http://www.w3.org/2000/svg">
<rect width="44" height="44" rx="6" fill="#619B5C"/>
<path fill-rule="evenodd" clip-rule="evenodd" d="M11 23.1111C11 16.9746 15.9746 12 22.1111 12C28.2476 12 33.2222 16.9746 33.2222 23.1111V27.5556C33.2222 30.0102 31.2324 32 28.7778 32H26.5555V23.1111H17.6666V32H15.4444C12.9898 32 11 30.0102 11 27.5556V23.1111ZM12.4815 24.2428C13.2678 23.5391 14.3061 23.1111 15.4444 23.1111H28.7778C29.9161 23.1111 30.9544 23.539 31.7407 24.2428V23.1111C31.7407 17.7928 27.4294 13.4815 22.1111 13.4815C16.7928 13.4815 12.4815 17.7928 12.4815 23.1111V24.2428Z" fill="#000000"/>
</svg>
