<svg width="44" height="44" viewBox="0 0 44 44" fill="none" xmlns="http://www.w3.org/2000/svg">
<rect width="44" height="44" rx="6" fill="#41658A"/>
<rect x="0.5" y="0.5" width="43" height="43" rx="5.5" stroke="white" stroke-opacity="0.03"/>
<path d="M17.2 29.2C15.88 29.2 14.812 30.28 14.812 31.6C14.812 32.92 15.88 34 17.2 34C18.52 34 19.6 32.92 19.6 31.6C19.6 30.28 18.52 29.2 17.2 29.2ZM10 11.2C10 11.86 10.54 12.4 11.2 12.4H12.4L16.72 21.508L15.1 24.436C14.224 26.044 15.376 28 17.2 28H30.4C31.06 28 31.6 27.46 31.6 26.8C31.6 26.14 31.06 25.6 30.4 25.6H17.2L18.52 23.2H27.46C28.36 23.2 29.152 22.708 29.56 21.964L33.856 14.176C34.3 13.384 33.724 12.4 32.812 12.4H15.052L14.248 10.684C14.056 10.264 13.624 10 13.168 10H11.2C10.54 10 10 10.54 10 11.2ZM29.2 29.2C27.88 29.2 26.812 30.28 26.812 31.6C26.812 32.92 27.88 34 29.2 34C30.52 34 31.6 32.92 31.6 31.6C31.6 30.28 30.52 29.2 29.2 29.2Z" fill="white"/>
</svg>
