<svg width="44" height="44" viewBox="0 0 44 44" fill="none" xmlns="http://www.w3.org/2000/svg">
<rect width="44" height="44" rx="6" fill="#7E5063"/>
<rect x="0.5" y="0.5" width="43" height="43" rx="5.5" stroke="white" stroke-opacity="0.03"/>
<path d="M28.8 13.8H26.4C26.4 11.148 24.252 9 21.6 9C18.948 9 16.8 11.148 16.8 13.8H14.4C13.08 13.8 12 14.88 12 16.2V30.6C12 31.92 13.08 33 14.4 33H28.8C30.12 33 31.2 31.92 31.2 30.6V16.2C31.2 14.88 30.12 13.8 28.8 13.8ZM19.2 18.6C19.2 19.26 18.66 19.8 18 19.8C17.34 19.8 16.8 19.26 16.8 18.6V16.2H19.2V18.6ZM21.6 11.4C22.92 11.4 24 12.48 24 13.8H19.2C19.2 12.48 20.28 11.4 21.6 11.4ZM26.4 18.6C26.4 19.26 25.86 19.8 25.2 19.8C24.54 19.8 24 19.26 24 18.6V16.2H26.4V18.6Z" fill="white"/>
</svg>
