<svg width="44" height="44" viewBox="0 0 44 44" fill="none" xmlns="http://www.w3.org/2000/svg">
<rect width="44" height="44" rx="6" fill="#619B5C"/>
<rect x="0.5" y="0.5" width="43" height="43" rx="5.5" stroke="white" stroke-opacity="0.03"/>
<path d="M15.8 17.4285V14.7142C15.8 14.2378 15.9756 13.7697 16.3091 13.3571C16.6427 12.9445 17.1224 12.6018 17.7 12.3636C18.2777 12.1254 18.933 12 19.6 12C20.2671 12 20.9223 12.1254 21.5 12.3636C22.0777 12.1254 22.7329 12 23.4 12C24.067 12 24.7223 12.1254 25.3 12.3636C25.8776 12.6018 26.3573 12.9445 26.6909 13.3571C27.0244 13.7697 27.2 14.2378 27.2 14.7142V17.4285H28.15C28.9059 17.4285 29.6308 17.643 30.1653 18.0247C30.6997 18.4065 31 18.9243 31 19.4642V28.2856C31 28.9425 30.6665 29.5771 30.0614 30.0718C29.4563 30.5664 28.6205 30.8875 27.7092 30.9755C27.0379 30.9004 26.4262 30.6565 25.9845 30.2877C25.5427 29.9189 25.3 29.4496 25.3 28.9642V14.7142C25.3002 14.507 25.234 14.3025 25.1064 14.1164C24.9789 13.9303 24.7933 13.7675 24.5641 13.6406C24.3348 13.5136 24.0679 13.4259 23.7838 13.384C23.4996 13.3422 23.2059 13.3473 22.925 13.3991C23.229 13.7886 23.4 14.2379 23.4 14.7142V28.9642C23.4 29.7283 23.7534 30.4326 24.35 30.9999H15.8C14.7922 30.9999 13.8256 30.714 13.113 30.2049C12.4004 29.6959 12 29.0055 12 28.2856V19.4642C12 18.9243 12.3003 18.4065 12.8347 18.0247C13.3692 17.643 14.0941 17.4285 14.85 17.4285H15.8ZM17.7 14.7142V17.4285H21.5V14.7142C21.5 14.3543 21.2998 14.0091 20.9435 13.7546C20.5872 13.5001 20.1039 13.3571 19.6 13.3571C19.0961 13.3571 18.6128 13.5001 18.2565 13.7546C17.9002 14.0091 17.7 14.3543 17.7 14.7142V14.7142Z" fill="white"/>
</svg>
