<svg width="44" height="44" viewBox="0 0 44 44" fill="none" xmlns="http://www.w3.org/2000/svg">
<rect width="44" height="44" rx="6" fill="#000000"/>
<path d="M34 16.2494C33.6719 16.729 33.3007 17.1762 32.8867 17.591C32.4726 18.0059 32.0234 18.3846 31.539 18.7271C31.5469 18.8337 31.5527 18.9384 31.5566 19.0412C31.5606 19.1439 31.5625 19.2486 31.5625 19.3552C31.5625 20.3143 31.457 21.262 31.246 22.1983C31.0351 23.1346 30.7305 24.0405 30.3319 24.9159C29.7539 26.1871 29.0313 27.3232 28.1641 28.3242C27.2968 29.3253 26.3145 30.1721 25.2168 30.8648C24.1191 31.5575 22.9219 32.0865 21.625 32.452C20.3281 32.8173 18.9687 33 17.5469 33C16.2031 33 14.8926 32.8193 13.6152 32.4576C12.3379 32.096 11.1328 31.5575 10 30.8419C10.3828 30.8875 10.7734 30.9104 11.1719 30.9104C12.2891 30.9104 13.3691 30.7354 14.4121 30.3853C15.4551 30.035 16.4141 29.525 17.2891 28.8551C16.7656 28.8476 16.2617 28.7619 15.7773 28.5982C15.293 28.4347 14.8496 28.2062 14.4473 27.9132C14.0449 27.62 13.6933 27.2718 13.3926 26.8684C13.0918 26.4649 12.8594 26.0196 12.6953 25.5324C12.8515 25.5553 13.0058 25.5743 13.1582 25.5895C13.3105 25.6048 13.4648 25.6124 13.6211 25.6124C14.0586 25.6124 14.4883 25.5553 14.9101 25.4411C14.332 25.3269 13.8027 25.1252 13.3223 24.8359C12.8418 24.5467 12.4258 24.1946 12.0742 23.7797C11.7227 23.3649 11.4492 22.8967 11.2539 22.3753C11.0586 21.8539 10.9609 21.3077 10.9609 20.7368V20.6797C11.6484 21.0603 12.3945 21.262 13.1992 21.2849C12.8555 21.0565 12.5488 20.7958 12.2793 20.5027C12.0098 20.2096 11.7812 19.8918 11.5937 19.5493C11.4062 19.2067 11.2617 18.8452 11.1601 18.4645C11.0586 18.0839 11.0078 17.6919 11.0078 17.2885C11.0078 16.8622 11.0625 16.4454 11.1719 16.0382C11.2812 15.6309 11.4492 15.2446 11.6758 14.8792C12.3008 15.6328 12.9961 16.3084 13.7617 16.906C14.5273 17.5035 15.3418 18.0154 16.2051 18.4417C17.0683 18.868 17.9726 19.2048 18.918 19.4522C19.8633 19.6996 20.832 19.8462 21.8242 19.8918C21.7773 19.7168 21.7441 19.536 21.7246 19.3495C21.7051 19.163 21.6953 18.9784 21.6953 18.7957C21.6953 18.1334 21.8242 17.5111 22.082 16.9288C22.3398 16.3464 22.6914 15.8383 23.1367 15.4044C23.582 14.9705 24.1035 14.628 24.7011 14.3768C25.2988 14.1256 25.9375 14 26.6171 14C27.3047 14 27.959 14.1313 28.5801 14.3939C29.2012 14.6566 29.746 15.0314 30.2149 15.5186C30.7694 15.4121 31.3067 15.2617 31.8261 15.0676C32.3457 14.8735 32.8477 14.6356 33.3319 14.354C33.1523 14.9097 32.877 15.4159 32.5058 15.8726C32.1347 16.3293 31.6914 16.7061 31.1757 17.003C32.1601 16.8888 33.1015 16.6376 34 16.2494Z" fill="#CFD5DB"/>
</svg>
