<svg width="44" height="44" viewBox="0 0 44 44" fill="none" xmlns="http://www.w3.org/2000/svg">
<rect width="44" height="44" rx="6" fill="#638581"/>
<rect x="0.5" y="0.5" width="43" height="43" rx="5.5" stroke="white" stroke-opacity="0.03"/>
<rect width="9.76005" height="9.76005" transform="matrix(0.705837 0.708374 -0.705837 0.708374 21.5078 15.5767)" fill="white"/>
<rect width="4.88003" height="4.88003" transform="matrix(0.705837 0.708374 -0.705837 0.708374 28.3379 25.877)" fill="white"/>
<rect width="4.88003" height="4.88003" transform="matrix(0.705837 0.708374 -0.705837 0.708374 28.3379 12.1865)" fill="white"/>
<rect width="4.88003" height="4.88003" transform="matrix(0.705837 0.708374 -0.705837 0.708374 14.6914 25.877)" fill="white"/>
<rect width="2.44001" height="2.44001" transform="matrix(0.705837 0.708374 -0.705837 0.708374 21.5078 32.7217)" fill="white"/>
<rect width="2.44001" height="2.44001" transform="matrix(0.705837 0.708374 -0.705837 0.708374 21.5078 8.80029)" fill="white"/>
<rect width="4.88003" height="4.88003" transform="matrix(0.705837 0.708374 -0.705837 0.708374 14.6914 12.1865)" fill="white"/>
</svg>
