<svg width="45" height="45" viewBox="0 0 45 45" fill="none" xmlns="http://www.w3.org/2000/svg">
<path fill-rule="evenodd" clip-rule="evenodd" d="M18.2978 45L39 45C42.3137 45 45 42.3137 45 39L45 7C45 3.68629 42.3137 0.999996 39 0.999996L7 0.999993C3.6863 0.999993 1 3.68628 1 6.99999L1 28.2987L18.2978 45Z" fill="white"/>
<path fill-rule="evenodd" clip-rule="evenodd" d="M18.2858 44.9884L18.2858 34.3103C18.2858 30.9966 15.5995 28.3103 12.2858 28.3103L1.01208 28.3103L18.2858 44.9884Z" fill="#BCC3C9"/>
<path d="M6.19329 6.1938C5.89703 6.49006 5.89703 6.97039 6.19329 7.26665L18.5311 19.6044L19.6039 18.5316L7.26614 6.1938C6.96988 5.89754 6.48955 5.89754 6.19329 6.1938Z" fill="#2A3238"/>
<path fill-rule="evenodd" clip-rule="evenodd" d="M18.5311 25.2613L25.2608 18.5316L10.0946 3.36537C8.2362 1.50702 5.22321 1.50701 3.36485 3.36537C1.5065 5.22373 1.5065 8.23672 3.36485 10.0951L18.5311 25.2613Z" fill="#2A3238"/>
<path d="M28.2634 28.069L26.022 19.7038L19.8983 25.8275L28.2634 28.069Z" fill="#2A3238"/>
</svg>
