<svg width="44" height="44" viewBox="0 0 44 44" fill="none" xmlns="http://www.w3.org/2000/svg">
<rect width="44" height="44" rx="6" fill="#7E5063"/>
<rect x="0.5" y="0.5" width="43" height="43" rx="5.5" stroke="white" stroke-opacity="0.03"/>
<path d="M28.7916 18.9989L19.1307 13.4584C18.6079 13.1565 18.0146 12.9984 17.4109 13C16.8073 13.0017 16.2148 13.1631 15.6937 13.4678C15.1726 13.7725 14.7414 14.2098 14.444 14.7351C14.1466 15.2604 13.9935 15.855 14.0002 16.4586V27.5797C14.0002 28.4868 14.3606 29.3568 15.002 29.9982C15.6434 30.6396 16.5134 31 17.4205 31C18.021 30.999 18.6107 30.8403 19.1307 30.54L28.7916 24.9994C29.3107 24.699 29.7417 24.2673 30.0413 23.7478C30.3409 23.2282 30.4986 22.6389 30.4986 22.0392C30.4986 21.4394 30.3409 20.8501 30.0413 20.3306C29.7417 19.811 29.3107 19.3793 28.7916 19.0789V18.9989ZM27.7915 23.1893L18.1306 28.8098C17.9141 28.9325 17.6694 28.997 17.4205 28.997C17.1716 28.997 16.927 28.9325 16.7105 28.8098C16.4945 28.6851 16.3152 28.5058 16.1906 28.2899C16.066 28.0739 16.0004 27.829 16.0004 27.5797V16.4186C16.0004 16.1693 16.066 15.9244 16.1906 15.7084C16.3152 15.4925 16.4945 15.3132 16.7105 15.1885C16.9279 15.0677 17.1718 15.0024 17.4205 14.9985C17.6691 15.0036 17.9127 15.0688 18.1306 15.1885L27.7915 20.769C28.0075 20.8937 28.1869 21.0729 28.3116 21.2889C28.4363 21.5048 28.502 21.7498 28.502 21.9992C28.502 22.2485 28.4363 22.4935 28.3116 22.7094C28.1869 22.9254 28.0075 23.1047 27.7915 23.2293V23.1893Z" fill="white"/>
</svg>
