<svg width="451" height="390" viewBox="0 0 451 390" fill="none" xmlns="http://www.w3.org/2000/svg">
<path fill-rule="evenodd" clip-rule="evenodd" d="M15 300H211V360H136H133C124.716 360 118 366.716 118 375C118 383.284 124.716 390 133 390H136H271H318C326.284 390 333 383.284 333 375C333 366.716 326.284 360 318 360H271H241V300H256H271H436C444.284 300 451 293.284 451 285V90V15C451 10.858 449.321 7.108 446.607 4.3935C443.933 1.7197 440.254 0.0505867 436.186 0.00113106C436.124 0.000377655 436.062 0 436 0H256H15C6.716 0 0 6.716 0 15V285C0 293.284 6.716 300 15 300ZM25 32C25 28.6863 27.6863 26 31 26H420C423.314 26 426 28.6863 426 32V266C426 269.314 423.314 272 420 272H31C27.6863 272 25 269.314 25 266V32ZM403 47H49V252H403V47Z" fill="black"/>
</svg>
